<?xml version="1.0" encoding="UTF-8" standalone="no"?>
<!DOCTYPE svg PUBLIC "-//W3C//DTD SVG 20010904//EN"
              "http://www.w3.org/TR/2001/REC-SVG-20010904/DTD/svg10.dtd">

<svg xmlns="http://www.w3.org/2000/svg"
     width="6.90278in" height="3.38889in"
     viewBox="0 0 497 244">
  <path id="Selection"
        fill="#66FCF1" stroke="black" stroke-width="1"
        d="M 62.00,6.00
           C 62.00,6.00 138.00,6.00 138.00,6.00
             138.00,6.00 375.00,6.00 375.00,6.00
             375.00,6.00 458.00,6.00 458.00,6.00
             467.65,6.02 476.02,8.70 479.20,19.00
             480.10,21.92 480.00,24.98 480.00,28.00
             480.00,28.00 480.00,186.00 480.00,186.00
             480.00,186.00 479.35,221.00 479.35,221.00
             477.60,226.81 472.77,231.46 467.00,233.20
             464.02,234.10 461.07,234.00 458.00,234.00
             458.00,234.00 112.00,234.00 112.00,234.00
             112.00,234.00 29.00,234.00 29.00,234.00
             14.86,233.98 8.02,227.14 8.00,213.00
             8.00,213.00 8.00,57.00 8.00,57.00
             8.00,57.00 8.00,34.00 8.00,34.00
             8.00,34.00 7.47,25.00 7.47,25.00
             7.92,15.81 13.39,9.21 22.00,6.53
             22.00,6.53 62.00,6.00 62.00,6.00 Z
           M 454.00,227.00
           C 458.43,226.94 464.35,226.49 467.89,223.57
             472.68,219.63 472.97,212.74 473.00,207.00
             473.00,207.00 473.00,96.00 473.00,96.00
             473.00,96.00 473.00,42.00 473.00,42.00
             473.00,35.51 473.94,24.39 470.28,19.04
             466.18,13.06 458.52,13.01 452.00,13.00
             452.00,13.00 116.00,13.00 116.00,13.00
             116.00,13.00 51.00,13.00 51.00,13.00
             44.01,13.00 27.66,12.11 22.02,15.16
             15.11,18.89 15.01,27.12 15.00,34.00
             15.00,34.00 15.00,182.00 15.00,182.00
             15.00,182.00 15.00,206.00 15.00,206.00
             15.01,212.04 15.05,219.37 20.11,223.57
             24.24,227.00 29.93,226.99 35.00,227.00
             35.00,227.00 76.00,227.00 76.00,227.00
             74.86,224.94 73.18,222.46 73.46,220.00
             74.04,214.78 86.57,207.52 91.00,204.81
             107.10,194.95 139.43,181.62 158.00,179.00
             157.08,176.49 152.10,165.24 150.35,163.99
             148.62,162.75 145.20,163.06 143.00,162.67
             139.80,162.11 136.70,160.68 134.00,158.89
             120.07,149.69 118.80,130.99 132.02,120.53
             136.75,116.78 139.50,116.48 145.00,115.00
             145.00,117.60 145.34,122.55 143.98,124.70
             142.32,127.33 138.63,127.65 135.65,131.30
             130.49,137.63 133.19,147.82 141.00,150.74
             143.26,151.58 145.63,151.80 148.00,152.00
             148.00,152.00 147.00,139.00 147.00,139.00
             147.00,139.00 157.00,139.00 157.00,139.00
             159.22,155.82 160.45,165.93 171.52,180.00
             205.70,223.46 282.90,223.82 316.24,179.00
             326.85,164.74 327.79,155.74 330.00,139.00
             330.00,139.00 340.00,139.00 340.00,139.00
             340.00,139.00 339.00,152.00 339.00,152.00
             341.37,151.80 343.74,151.58 346.00,150.74
             353.81,147.82 356.51,137.63 351.35,131.30
             348.37,127.65 344.68,127.33 343.02,124.70
             341.66,122.55 342.00,117.60 342.00,115.00
             347.08,116.36 350.69,116.87 354.96,120.39
             367.89,131.02 367.17,149.87 353.00,159.03
             350.47,160.67 346.97,162.15 344.00,162.67
             341.27,163.16 338.04,162.53 335.97,164.57
             334.33,166.18 329.79,176.48 329.00,179.00
             346.75,181.73 376.34,193.45 392.00,202.43
             392.00,202.43 417.00,219.00 417.00,219.00
             417.00,219.00 411.00,227.00 411.00,227.00
             411.00,227.00 454.00,227.00 454.00,227.00 Z
           M 330.00,27.00
           C 330.00,27.00 330.00,66.00 330.00,66.00
             330.00,66.00 332.00,81.00 332.00,81.00
             327.58,80.48 326.64,80.25 325.00,76.00
             321.36,78.49 319.41,80.02 315.00,81.08
             312.00,81.82 310.00,81.86 307.00,81.08
             283.33,74.83 291.81,35.94 315.00,42.64
             318.59,43.67 321.17,45.70 324.00,48.00
             324.00,48.00 325.00,27.00 325.00,27.00
             325.00,27.00 330.00,27.00 330.00,27.00 Z
           M 376.00,27.00
           C 376.00,27.00 376.00,67.00 376.00,67.00
             376.00,67.00 378.00,81.00 378.00,81.00
             373.46,80.63 372.43,80.49 371.00,76.00
             367.37,78.36 364.34,80.41 360.00,81.31
             355.91,82.15 351.55,81.16 348.00,79.00
             329.54,67.73 340.01,37.93 360.00,42.39
             363.82,43.24 366.96,45.68 370.00,48.00
             370.00,48.00 370.00,27.00 370.00,27.00
             370.00,27.00 376.00,27.00 376.00,27.00 Z
           M 392.00,27.00
           C 392.00,27.00 392.00,35.00 392.00,35.00
             392.00,35.00 387.00,35.00 387.00,35.00
             387.00,35.00 387.00,27.00 387.00,27.00
             387.00,27.00 392.00,27.00 392.00,27.00 Z
           M 43.42,39.00
           C 47.82,46.68 52.54,56.33 58.00,63.00
             58.00,63.00 71.85,38.00 71.85,38.00
             75.22,32.10 75.73,28.59 83.00,28.00
             83.00,28.00 83.00,81.00 83.00,81.00
             83.00,81.00 77.00,81.00 77.00,81.00
             77.00,81.00 77.00,42.00 77.00,42.00
             71.74,48.47 67.30,57.65 63.00,65.00
             61.64,67.31 59.70,71.64 56.28,70.38
             53.74,69.44 51.34,64.33 50.00,62.00
             50.00,62.00 38.00,42.00 38.00,42.00
             38.00,42.00 37.00,81.00 37.00,81.00
             37.00,81.00 31.00,81.00 31.00,81.00
             31.00,81.00 31.00,28.00 31.00,28.00
             39.26,28.29 39.57,32.28 43.42,39.00 Z
           M 258.58,41.00
           C 259.74,38.23 262.36,29.55 265.25,28.74
             269.74,27.50 272.40,36.93 273.72,40.00
             273.72,40.00 290.00,81.00 290.00,81.00
             279.04,80.65 283.51,72.05 277.36,66.60
             275.17,64.65 271.75,65.01 269.00,65.00
             265.36,64.99 258.21,64.30 255.39,66.60
             248.85,71.93 253.86,80.58 242.00,81.00
             242.00,81.00 258.58,41.00 258.58,41.00 Z
           M 450.00,29.00
           C 450.00,38.29 448.50,41.86 459.00,42.00
             459.00,42.00 459.00,47.00 459.00,47.00
             456.64,47.03 453.40,46.79 451.60,48.60
             449.68,50.52 450.01,54.46 450.00,57.00
             449.99,62.29 448.14,74.48 455.02,75.75
             456.62,76.04 459.36,75.33 461.00,75.00
             461.00,75.00 462.00,79.00 462.00,79.00
             460.08,79.89 459.17,80.42 457.00,80.78
             453.44,81.37 448.27,81.21 446.17,77.77
             444.99,75.84 445.03,73.19 445.00,71.00
             445.00,71.00 445.00,47.00 445.00,47.00
             445.00,47.00 439.00,47.00 439.00,47.00
             439.00,47.00 439.00,42.00 439.00,42.00
             439.00,42.00 445.00,42.00 445.00,42.00
             445.00,42.00 445.00,29.00 445.00,29.00
             445.00,29.00 450.00,29.00 450.00,29.00 Z
           M 257.00,60.00
           C 257.00,60.00 276.00,60.00 276.00,60.00
             276.00,60.00 267.00,37.00 267.00,37.00
             262.88,41.17 257.93,54.10 257.00,60.00 Z
           M 125.61,49.04
           C 134.29,59.68 129.89,77.51 116.00,80.96
             90.90,87.17 81.81,50.22 106.00,42.53
             114.02,41.21 120.21,42.42 125.61,49.04 Z
           M 143.00,42.00
           C 143.00,42.00 144.00,48.00 144.00,48.00
             148.34,45.14 156.41,37.98 158.00,47.00
             153.28,48.11 148.54,49.77 145.74,54.04
             142.92,58.34 144.00,75.13 144.00,81.00
             144.00,81.00 138.00,81.00 138.00,81.00
             138.00,81.00 138.00,42.00 138.00,42.00
             138.00,42.00 143.00,42.00 143.00,42.00 Z
           M 169.00,42.00
           C 169.00,42.00 169.00,48.00 169.00,48.00
             172.16,46.23 175.56,43.83 179.00,42.80
             201.31,36.08 197.00,68.06 197.00,81.00
             197.00,81.00 191.00,81.00 191.00,81.00
             191.00,73.59 192.70,54.41 187.58,49.31
             182.81,44.56 175.82,48.84 172.39,53.04
             167.29,59.28 169.00,73.04 169.00,81.00
             169.00,81.00 164.00,81.00 164.00,81.00
             164.00,81.00 164.00,42.00 164.00,42.00
             164.00,42.00 169.00,42.00 169.00,42.00 Z
           M 232.61,46.22
           C 237.29,51.27 235.96,60.46 236.00,67.00
             236.05,74.96 237.54,74.14 238.00,81.00
             234.25,80.55 233.33,80.69 232.00,77.00
             225.54,79.37 219.22,83.66 212.00,80.85
             202.12,77.02 200.52,64.20 212.00,59.24
             218.55,56.79 224.36,58.46 231.00,59.24
             230.71,56.99 230.47,54.93 229.74,53.01
             225.17,40.95 214.85,48.15 207.00,50.00
             207.55,39.78 227.04,40.22 232.61,46.22 Z
           M 392.00,42.00
           C 392.00,42.00 392.00,81.00 392.00,81.00
             392.00,81.00 387.00,81.00 387.00,81.00
             387.00,81.00 387.00,42.00 387.00,42.00
             387.00,42.00 392.00,42.00 392.00,42.00 Z
           M 400.10,60.00
           C 401.35,41.91 425.95,34.56 435.00,51.00
             425.71,54.12 425.93,44.81 416.92,47.30
             402.86,51.18 402.60,71.06 416.00,76.11
             425.86,79.83 426.00,69.89 436.00,72.00
             425.83,90.76 398.67,80.47 400.10,60.00 Z
           M 357.00,76.88
           C 368.82,77.71 370.15,69.11 370.00,60.00
             369.95,57.50 369.95,55.35 368.69,53.09
             366.40,49.01 362.37,47.40 358.00,46.77
             338.94,47.89 340.62,75.74 357.00,76.88 Z
           M 115.00,76.35
           C 125.25,73.11 126.90,57.13 119.79,50.23
             116.04,46.58 111.82,46.70 107.00,47.43
             89.47,54.39 97.87,81.75 115.00,76.35 Z
           M 316.00,76.35
           C 326.99,72.95 327.22,57.35 321.61,51.21
             317.80,47.05 313.23,46.65 308.00,47.43
             290.52,54.38 299.47,81.46 316.00,76.35 Z
           M 222.00,61.60
           C 219.99,61.51 217.94,61.74 216.00,62.31
             207.94,64.65 207.70,71.62 212.23,75.49
             217.25,79.78 227.82,76.99 230.26,70.96
             231.14,68.80 230.99,65.35 231.00,63.00
             231.00,63.00 222.00,61.60 222.00,61.60 Z
           M 200.00,97.72
           C 219.46,103.69 213.78,134.06 193.00,132.21
             175.63,130.67 170.29,105.08 190.00,97.72
             193.56,96.92 196.45,96.72 200.00,97.72 Z
           M 298.00,97.75
           C 316.85,104.79 311.10,133.99 291.00,132.21
             272.46,130.57 268.07,103.86 288.00,97.75
             291.61,96.94 294.46,96.69 298.00,97.75 Z
           M 195.98,120.67
           C 203.09,119.13 203.45,107.78 193.04,108.55
             184.12,112.57 188.82,122.21 195.98,120.67 Z
           M 293.98,120.67
           C 300.61,119.23 301.14,108.21 291.02,108.48
             281.33,112.34 286.91,122.20 293.98,120.67 Z
           M 237.16,115.00
           C 237.16,115.00 237.16,139.00 237.16,139.00
             237.99,141.67 240.37,144.90 243.42,144.89
             246.53,144.88 248.99,141.74 249.84,139.00
             249.84,139.00 249.84,115.00 249.84,115.00
             249.84,115.00 261.00,115.00 261.00,115.00
             261.00,124.86 263.13,143.32 256.61,150.90
             249.82,158.78 237.18,158.78 230.39,150.90
             226.86,146.79 226.07,142.21 226.00,137.00
             226.00,137.00 226.00,115.00 226.00,115.00
             226.00,115.00 237.16,115.00 237.16,115.00 Z
           M 196.00,136.82
           C 196.00,136.82 209.00,131.82 209.00,131.82
             209.00,131.82 217.00,136.00 217.00,136.00
             206.49,151.78 190.70,150.23 175.00,145.00
             175.00,145.00 179.00,135.00 179.00,135.00
             179.00,135.00 196.00,136.82 196.00,136.82 Z
           M 278.00,131.82
           C 278.00,131.82 291.00,136.82 291.00,136.82
             291.00,136.82 308.00,135.00 308.00,135.00
             308.00,135.00 312.00,145.00 312.00,145.00
             296.30,150.23 280.51,151.78 270.00,136.00
             270.00,136.00 278.00,131.82 278.00,131.82 Z
           M 273.00,176.00
           C 273.00,176.00 273.00,187.00 273.00,187.00
             273.00,187.00 214.00,187.00 214.00,187.00
             214.00,187.00 214.00,176.00 214.00,176.00
             214.00,176.00 273.00,176.00 273.00,176.00 Z
           M 383.00,209.75
           C 368.00,202.24 342.48,191.70 326.00,189.48
             319.68,188.63 317.92,192.76 313.83,196.56
             310.62,199.55 301.78,206.21 298.00,208.54
             281.17,218.93 260.75,224.23 241.00,224.00
             223.79,223.79 201.25,216.83 187.00,207.25
             187.00,207.25 173.17,196.56 173.17,196.56
             170.73,194.30 168.17,190.67 165.00,189.64
             161.46,188.48 148.22,192.54 144.00,193.63
             130.30,197.17 114.53,204.18 102.00,210.75
             94.25,214.81 84.41,220.08 79.00,227.00
             79.00,227.00 408.00,227.00 408.00,227.00
             402.67,220.18 390.83,213.68 383.00,209.75 Z" />
</svg>
